<svg xmlns="http://www.w3.org/2000/svg" xmlns:xlink="http://www.w3.org/1999/xlink" version="1.1" id="Layer_1" x="0px" y="0px" viewBox="0 0 355.6 204.9" style="enable-background:new 0 0 355.6 204.9;" xml:space="preserve"><script xmlns=""/>
<style type="text/css">
	.st0{display:none;}
	.st1{display:inline;fill:#231F20;}
	.st2{fill:#231F20;}
	.st3{fill:none;}
	.st4{fill:#97D8E7;}
	.st5{fill:#FFFFFF;}
	.st6{fill:#FDC27D;}
</style>
<title>footer-logo-fg</title>
<g class="st0">
	<rect x="0.4" y="125" class="st1" width="1.5" height="20"/>
	<polygon class="st1" points="6.4,125 7.8,125 21.6,142.4 21.6,125 23,125 23,145 21.9,145 7.8,127.2 7.8,145 6.4,145  "/>
	<path class="st1" d="M28.7,126.4v17.2h5.2c5.6,0,9.1-3.8,9.1-8.6v0c0-4.8-3.5-8.6-9.1-8.6H28.7z M27.2,125h6.6   c6.3,0,10.6,4.3,10.6,9.9v0.1c0,5.6-4.3,10-10.6,10h-6.6V125z"/>
	<rect x="48" y="125" class="st1" width="1.5" height="20"/>
	<path class="st1" d="M67.5,138.1l-5.3-11.6L57,138.1H67.5z M61.5,124.9H63l9.3,20.1h-1.6l-2.5-5.6H56.3l-2.5,5.6h-1.5L61.5,124.9z"/>
	<polygon class="st1" points="74.8,125 76.2,125 90,142.4 90,125 91.4,125 91.4,145 90.3,145 76.2,127.2 76.2,145 74.8,145  "/>
	<path class="st1" d="M109.2,138.1l-5.3-11.6l-5.3,11.6H109.2z M103.3,124.9h1.4L114,145h-1.6l-2.5-5.6H98l-2.5,5.6H94L103.3,124.9z   "/>
	<path class="st1" d="M122.1,142.1l1-1.1c1.9,2,4.5,3,7.2,3c3,0,5.1-1.7,5.1-4v-0.1c0-2.1-1.1-3.3-5.7-4.3c-4.8-1-6.7-2.6-6.7-5.6v0   c0-3,2.7-5.3,6.4-5.3c2.5-0.1,5,0.8,6.9,2.4l-0.9,1.2c-1.6-1.5-3.8-2.3-6-2.3c-2.9,0-4.9,1.7-4.9,3.8l0,0c0,2.1,1.1,3.4,5.8,4.4   c4.8,1,6.6,2.6,6.6,5.5l0,0c0,3.2-2.8,5.5-6.6,5.5C127.1,145.2,124.2,144.1,122.1,142.1"/>
	<polygon class="st1" points="145.1,126.4 138.1,126.4 138.1,125 153.5,125 153.5,126.4 146.5,126.4 146.5,145 145.1,145  "/>
	<path class="st1" d="M167.3,138.1l-5.3-11.6l-5.3,11.6H167.3z M161.3,124.9h1.4l9.3,20.1h-1.6l-2.5-5.6h-11.8l-2.5,5.6H152   L161.3,124.9z"/>
	<polygon class="st1" points="177.6,126.4 170.6,126.4 170.6,125 186,125 186,126.4 179,126.4 179,145 177.6,145  "/>
	<polygon class="st1" points="188.8,125 203,125 203,126.4 190.3,126.4 190.3,134.2 201.7,134.2 201.7,135.6 190.3,135.6    190.3,143.6 203.2,143.6 203.2,145 188.8,145  "/>
</g>
<g class="st0">
	<path class="st1" d="M211.9,194.4L211.9,194.4c0-1.1-0.9-2-2-2c-1.2-0.1-2.2,0.8-2.2,2c0,0,0,0.1,0,0.1l0,0c0,0.8,0.4,1.4,1.5,2.6   C211,196.6,211.9,195.7,211.9,194.4 M212.5,202l-3.8-3.9c-2,0.7-2.9,1.9-2.9,3.1l0,0c0,1.6,1.3,2.8,2.9,2.8c0,0,0.1,0,0.1,0   C210.2,204,211.6,203.2,212.5,202 M213.1,202.7c-1,1.4-2.7,2.2-4.4,2.2c-2,0.2-3.8-1.3-4-3.3c0-0.1,0-0.2,0-0.3l0,0   c0-1.7,1.2-3,3.3-3.8c-0.9-0.8-1.4-1.8-1.4-3l0,0c0-1.7,1.4-3,3.1-2.9c0.1,0,0.1,0,0.2,0c1.6-0.1,2.9,1.1,3,2.7c0,0,0,0.1,0,0.1   l0,0c0,1.6-1.2,2.7-3.2,3.3l3.4,3.5c0.7-1,1.2-2,1.7-3.1l0.9,0.4c-0.5,1.2-1.2,2.4-1.9,3.4l2.4,2.4l-0.8,0.6L213.1,202.7z"/>
	<polygon class="st1" points="221.9,191.8 221.9,204.7 231.2,204.7 231.2,203.8 222.9,203.8 222.9,198.6 230.3,198.6 230.3,197.8    222.9,197.8 222.9,192.7 231.1,192.7 231.1,191.8  "/>
	<polygon class="st1" points="243.2,191.8 238.1,203.7 233.1,191.8 232,191.8 237.7,204.8 238.6,204.8 244.2,191.8  "/>
	<polygon class="st1" points="245.9,191.8 245.9,204.7 255.1,204.7 255.1,203.8 246.8,203.8 246.8,198.6 254.2,198.6 254.2,197.8    246.8,197.8 246.8,192.7 255,192.7 255,191.8  "/>
	<polygon class="st1" points="266.9,191.8 266.9,203 258,191.8 257.1,191.8 257.1,204.7 258,204.7 258,193.2 267.1,204.7    267.8,204.7 267.8,191.8  "/>
	<polygon class="st1" points="269.6,191.8 269.6,192.7 274.1,192.7 274.1,204.7 275.1,204.7 275.1,192.7 279.6,192.7 279.6,191.8     "/>
	<path class="st1" d="M285.2,198.3L285.2,198.3c-0.1-3.6,2.7-6.6,6.3-6.7c0.1,0,0.1,0,0.2,0c1.9,0,3.7,0.7,5,2.1l-0.7,0.7   c-1.1-1.2-2.7-1.9-4.4-1.9c-3,0-5.5,2.6-5.4,5.6c0,0.1,0,0.1,0,0.2l0,0c-0.1,3.1,2.2,5.7,5.3,5.8c0,0,0.1,0,0.1,0   c1.7,0,3.3-0.7,4.4-2l0.6,0.6c-1.3,1.5-3.2,2.3-5.1,2.3c-3.5,0-6.4-2.9-6.4-6.4C285.2,198.4,285.2,198.4,285.2,198.3"/>
	<polygon class="st1" points="298.3,191.8 298.3,204.7 307.5,204.7 307.5,203.8 299.2,203.8 299.2,198.6 306.6,198.6 306.6,197.8    299.2,197.8 299.2,192.7 307.4,192.7 307.4,191.8  "/>
	<polygon class="st1" points="319.3,191.8 319.3,203 310.4,191.8 309.5,191.8 309.5,204.7 310.4,204.7 310.4,193.2 319.5,204.7    320.2,204.7 320.2,191.8  "/>
	<polygon class="st1" points="322,191.8 322,192.7 326.5,192.7 326.5,204.7 327.5,204.7 327.5,192.7 332,192.7 332,191.8  "/>
	<polygon class="st1" points="333.8,191.8 333.8,204.7 343,204.7 343,203.8 334.7,203.8 334.7,198.6 342.1,198.6 342.1,197.8    334.7,197.8 334.7,192.7 343,192.7 343,191.8  "/>
	<path class="st1" d="M350.3,198.5c2.2,0,3.8-1.1,3.8-2.9l0,0c0-1.7-1.4-2.8-3.7-2.8H346v5.8L350.3,198.5z M345,191.8h5.4   c1.3-0.1,2.6,0.4,3.6,1.3c0.6,0.6,1,1.5,1,2.4l0,0c0,2.2-1.6,3.4-3.8,3.7l4.3,5.5h-1.2l-4.1-5.3H346v5.3h-1V191.8z"/>
</g>
<polygon class="st2" points="0,149.5 0,186.6 8.2,186.6 8.2,172.3 25.9,172.3 25.9,164.8 8.2,164.8 8.2,156.9 28.3,156.9   28.3,149.5 "/>
<path class="st2" d="M47.1,171.1l-4.9-12l-4.9,12H47.1z M38.5,149.2H46l15.9,37.4h-8.5l-3.4-8.3H34.3l-3.4,8.3h-8.3L38.5,149.2z"/>
<rect x="63.3" y="149.5" class="st2" width="8.2" height="37.1"/>
<path class="st2" d="M92.4,167.5c4,0,6.3-2.1,6.3-5.3v-0.1c0-3.5-2.4-5.3-6.4-5.3h-8.1v10.7H92.4z M75.9,149.5h17  c4.7,0,8.4,1.3,10.8,3.8c2.2,2.3,3.3,5.3,3.2,8.5v0.1c0.2,5.2-3,9.9-8,11.5l9.1,13.2h-9.5l-8-11.9h-6.4v11.9h-8.2L75.9,149.5z"/>
<path class="st2" d="M107.9,168.2v-0.1c-0.1-10.5,8.4-19.1,18.9-19.2c0.2,0,0.4,0,0.5,0c6.7,0,10.7,1.8,14.6,5.1l-5.1,6.2  c-2.9-2.4-5.4-3.8-9.7-3.8c-5.9,0-10.7,5.3-10.7,11.6v0.1c0,6.8,4.7,11.8,11.2,11.8c2.7,0.1,5.4-0.7,7.7-2.2v-5.3h-8.2v-7.1h16.1  v16.1c-4.4,3.8-10,5.9-15.8,5.9C115.8,187.3,107.9,179.1,107.9,168.2"/>
<path class="st2" d="M162.8,167.5c4,0,6.3-2.1,6.3-5.3v-0.1c0-3.5-2.4-5.3-6.4-5.3h-8.1v10.7H162.8z M146.3,149.5h17  c4.7,0,8.4,1.3,10.8,3.8c2.2,2.3,3.3,5.3,3.2,8.5v0.1c0.2,5.2-3,9.9-8,11.5l9.1,13.3h-9.5l-8-11.9h-6.4v11.9h-8.2L146.3,149.5z"/>
<path class="st2" d="M209.1,168.2v-0.1c0-6.4-4.7-11.7-11.2-11.7s-11.1,5.2-11.1,11.6v0.1c0,6.4,4.7,11.7,11.2,11.7  S209.1,174.5,209.1,168.2 M178.2,168.2v-0.1c0-10.6,8.3-19.2,19.8-19.2s19.7,8.5,19.7,19.1v0.1c0,10.6-8.3,19.2-19.8,19.2  S178.2,178.7,178.2,168.2"/>
<path class="st2" d="M219.6,170.7v-21.2h8.2v21c0,6,3,9.2,8,9.2s8-3,8-8.9v-21.3h8.2v21c0,11.2-6.3,16.8-16.3,16.8  S219.6,181.7,219.6,170.7"/>
<polygon class="st2" points="255.5,149.5 263,149.5 280.4,172.4 280.4,149.5 288.5,149.5 288.5,186.6 281.5,186.6 263.6,163   263.6,186.6 255.5,186.6 "/>
<path class="st2" d="M300.8,156.9v22.4h6.3c6.7,0,11.2-4.5,11.2-11.1v-0.1c0-6.6-4.5-11.2-11.2-11.2H300.8z M292.6,149.5h14.5  c11.7,0,19.7,8,19.7,18.4v0.1c0,10.4-8.1,18.6-19.7,18.6h-14.5V149.5z"/>
<path class="st2" d="M326.2,181.2l4.8-5.8c3.3,2.8,6.8,4.5,11.1,4.5c3.3,0,5.4-1.3,5.4-3.5v-0.1c0-2.1-1.3-3.1-7.5-4.7  c-7.5-1.9-12.3-4-12.3-11.4v-0.1c0-6.7,5.4-11.2,13-11.2c5-0.1,9.9,1.6,13.8,4.7l-4.2,6.1c-3.3-2.3-6.5-3.7-9.6-3.7  s-4.8,1.4-4.8,3.2v0.1c0,2.4,1.6,3.2,8,4.9c7.5,2,11.8,4.7,11.8,11.1v0.1c0,7.4-5.6,11.5-13.6,11.5  C336.2,187.2,330.6,185.1,326.2,181.2"/>
<rect x="-38.2" y="-38.3" class="st3" width="432" height="281.5"/>
<g id="Sky">
	<path class="st4" d="M209.1,41.2v5.9l-13.4,7.2l-7.3-1.8l-0.1-3c-0.6-0.5-1.4-0.8-2.2-0.8c-0.4,0-0.8,0.1-1.1,0.2v-0.1v-0.2   c0-0.3-0.3-0.6-0.6-0.7c0.1-0.1,0.3-0.2,0.4-0.4v0.1c0,0,0,0,0.1,0l-0.1-0.2l0.2-0.3c0.1-0.2,0.1-0.3,0.1-0.5c0-1-1.1-1.8-2.6-1.8   c-1-0.1-1.9,0.4-2.4,1.3c-0.1,0-0.3,0-0.4,0c-0.2,0-0.4,0-0.6,0.1l0,0v-0.2c0-0.1,0-0.2-0.1-0.3l-0.1-0.1l-0.1-0.1   c-0.1,0-0.1-0.1-0.2-0.1c0.1-0.1,0.1-0.2,0.1-0.3c0,0,0-0.1,0-0.1c0-0.5-0.6-0.9-1.2-0.9l-0.3-0.2c0.2-0.1,0.3-0.3,0.3-0.5   c0-0.4-0.5-0.8-1.1-0.8h-0.2v-0.1c0-0.4-0.4-0.7-0.9-0.7c0-0.1,0.1-0.2,0.1-0.3c0-0.1,0-0.3-0.1-0.4c0.1-0.1,0.3-0.2,0.4-0.3   c0.2-0.2,0.3-0.4,0.3-0.7c0-0.1,0-0.3-0.1-0.4c0.6-0.5,0.9-1.2,0.9-2c0-1.5-1.4-2.7-3.3-3.1c0-0.1,0-0.2,0-0.3   c0-0.8-1.1-1.5-2.5-1.5c-0.4,0-0.9,0.1-1.3,0.2c-1.5-1.7-3.8-2.6-6.1-2.5c-3.8,0-6.9,2.2-6.9,4.9c0,0.2,0,0.4,0.1,0.6h-0.2   c-2,0-3.6,1.1-3.6,2.5c0,0.8,0.5,1.5,1.1,1.8c-0.4,0.2-0.7,0.6-0.7,1c0,0.2,0.1,0.4,0.2,0.5l-0.1,0.1c-0.5,0.1-0.8,0.4-0.8,0.7   c0,0.3,0.2,0.5,0.5,0.6c-0.3,0.2-0.4,0.5-0.4,0.8c0,0.7,0.8,1.2,1.7,1.3c-0.1,0.1-0.2,0.3-0.2,0.5c0,0.2,0.2,0.4,0.4,0.6   c-0.1,0.1-0.1,0.2-0.1,0.3v0.1l0,0c-0.7,0.2-1.2,0.8-1.2,1.5v0.1c-0.2,0.1-0.4,0.3-0.6,0.5l-3.3,0.6c0,0,0-38.7,0-49.6H209   c0,6.6,0,23.2,0,33.2L209.1,41.2z"/>
</g>
<path id="Small_Cloud" class="st5" d="M171.1,22.8c0.8,0,1.7-0.1,2.4-0.4c0.4,0.1,0.7,0.2,1.1,0.2c1.1,0,2-0.5,2-1.2v-0.1  c2,0,3.6-1.1,3.6-2.3s-1.7-2.3-3.8-2.3s-3.6,1-3.7,2.2c-0.5-0.1-1.1-0.2-1.7-0.2c-2.3,0-4.2,0.9-4.2,2.1S168.7,22.8,171.1,22.8  L171.1,22.8z"/>
<path id="Cloud" class="st5" d="M202,9.7c0,0.8-1.1,1.4-2.6,1.4c-0.4,0-0.8-0.1-1.2-0.1c-0.3,0.8-1.1,1.4-2,1.3  c-1.1,0.1-2.1-0.8-2.1-1.9c0,0,0,0,0,0v-0.1c-0.2,0-0.5,0.1-0.7,0.1c-0.1,0.1-0.2,0.2-0.3,0.3c0.1,0.2,0.2,0.4,0.2,0.7  c0,1.6-2.6,2.8-5.7,2.8s-5.7-1.3-5.7-2.8c0-1,1.1-1.9,2.7-2.4l0,0c0.1-1.1,0.9-2,1.9-2.3V6.4c0-0.3,0.3-0.6,0.7-0.9  c-1.4-0.2-2.5-0.8-2.5-1.6s1.4-1.7,3.2-1.7h0.5c-0.2-0.2-0.3-0.5-0.3-0.7c0-0.6,0.5-1.1,1.3-1.5h4.9c0.8,0.4,1.3,0.9,1.3,1.5  c0,0.4-0.2,0.8-0.6,1.1c1.5,0.2,2.6,0.8,2.6,1.6c0,0.2-0.1,0.4-0.2,0.6c0.4,0.2,0.7,0.6,0.7,1c0,0.3-0.1,0.5-0.3,0.7l0,0  c0.5-0.2,1.1-0.3,1.6-0.3c1.5,0,2.7,0.6,2.7,1.4c0,0.4-0.3,0.8-0.9,1C201.7,8.8,202,9.2,202,9.7z"/>
<path id="Big_Cloud" class="st5" d="M188.5,52.5l-4,1.5l-34.9-4.4l3.3-0.6c0.1-0.2,0.3-0.4,0.6-0.5v-0.1c0.1-0.7,0.6-1.3,1.2-1.5  l0,0v-0.1c0-0.1,0-0.2,0.1-0.3c-0.2-0.1-0.4-0.3-0.4-0.6c0-0.2,0.1-0.3,0.2-0.5c-1-0.1-1.7-0.6-1.7-1.3c0-0.3,0.2-0.6,0.4-0.8  c-0.3-0.1-0.4-0.3-0.5-0.6c0-0.4,0.4-0.7,0.8-0.7l0.1-0.1c-0.1-0.2-0.2-0.3-0.2-0.5c0-0.5,0.3-0.9,0.7-1c-0.7-0.4-1.1-1.1-1.1-1.8  c0-1.4,1.6-2.5,3.6-2.5h0.2c0-0.2-0.1-0.4-0.1-0.6c0-2.7,3.1-4.9,6.9-4.9c2.3-0.1,4.5,0.8,6.1,2.5c0.4-0.2,0.9-0.2,1.3-0.2  c1.4,0,2.5,0.7,2.5,1.5c0,0.1,0,0.2,0,0.3c1.9,0.4,3.3,1.7,3.3,3.1c0,0.8-0.4,1.5-0.9,2c0.1,0.1,0.1,0.3,0.1,0.4  c0,0.3-0.1,0.5-0.3,0.7c-0.1,0.1-0.2,0.2-0.4,0.3c0.1,0.1,0.1,0.3,0.1,0.4c0,0.1,0,0.2-0.1,0.3c0.5,0.1,0.9,0.4,0.9,0.7v0.1h0.2  c0.6,0,1.1,0.3,1.1,0.8c0,0.2-0.1,0.4-0.3,0.5l0.3,0.2c0.7,0,1.2,0.4,1.2,0.9c0,0,0,0.1,0,0.1c0,0.1,0,0.2-0.1,0.3  c0.1,0,0.1,0.1,0.2,0.1l0.1,0.1l0.1,0.1c0.1,0.1,0.1,0.2,0.1,0.3v0.2l0,0c0.2-0.1,0.4-0.1,0.6-0.1c0.1,0,0.3,0,0.4,0  c0.5-0.8,1.4-1.3,2.4-1.3c1.4,0,2.6,0.8,2.6,1.8c0,0.2,0,0.3-0.1,0.5l-0.2,0.3c-0.1,0.1-0.2,0.3-0.4,0.4c0.4,0.1,0.6,0.4,0.6,0.7  v0.2v0.1c0.4-0.1,0.8-0.2,1.1-0.2c0.8,0,1.6,0.3,2.2,0.8L188.5,52.5z"/>
<path id="Ferris_Wheel" class="st2" d="M209.1,41.2c-0.5-0.3-1-0.6-1.5-0.9l-0.5-0.3l0,0l0.8-2.2c0-0.1,0-0.2,0-0.3  c0-0.1-0.1-0.2-0.2-0.2l0.5,0.1c0.3,0,0.5-0.1,0.6-0.4l0.2-1.1c0-0.1,0-0.2-0.1-0.3c-0.1-0.1-0.2-0.2-0.3-0.2l-1.2-0.2  c-0.1-0.2-0.2-0.3-0.4-0.3l-1.3-0.2c-0.3,0-0.5,0.1-0.6,0.4l-0.2,1.1c0,0.1,0,0.2,0.1,0.3c0.1,0.1,0.2,0.2,0.3,0.2h0.1  c-0.1,0.1-0.2,0.1-0.2,0.3l-0.8,2.2l-0.3,0c-0.5-0.2-1-0.3-1.5-0.5v-1.9c0.2,0,0.4-0.2,0.4-0.4l0.2-1.1c0-0.1,0-0.2-0.1-0.3  c-0.1-0.1-0.2-0.2-0.3-0.2l-1.2-0.2c-0.1-0.2-0.2-0.3-0.4-0.3l-1.3-0.2c-0.3,0-0.5,0.1-0.6,0.4l-0.2,1.1c0,0.1,0,0.2,0.1,0.3  c0.1,0.1,0.2,0.2,0.3,0.2h0.1l-0.1,1c-0.2,0.3-0.4,0.3-0.4,0.3l0,0c-0.2,0-0.3,0.1-0.3,0.3l0.1,0.2c0.1,0.1,0.1,0.1,0.2,0.1  c0.2,0,0.4,0,0.6-0.2c0.1-0.1,0.2-0.1,0.2-0.2v0.8c-0.7,0-1.4,0.1-2.1,0.3l0,0l-0.4-1.3l-0.1-0.1l0.3-1c0-0.1,0-0.2,0-0.3  c-0.1-0.1-0.2-0.2-0.3-0.2l-1.1-0.3c0-0.2-0.2-0.3-0.4-0.3l-1.2-0.3c-0.2-0.1-0.5,0.1-0.6,0.3l-0.4,1.1c0,0.1,0,0.2,0,0.3  c0.1,0.1,0.2,0.2,0.3,0.2h0.1l-0.3,1V38c-0.1,0.1-0.2,0.2-0.3,0.2l0,0c-0.1,0-0.2,0-0.2,0.1c-0.1,0-0.1,0.1-0.1,0.2l0.1,0.2  c0,0.1,0.1,0.1,0.2,0.1h0.1c0.3,0,0.5-0.1,0.7-0.3l1.2,0.3l0.3,0.9c-0.9,0.5-1.7,1-2.4,1.7l-0.5-0.6l-0.1,0l0.2-0.7  c0-0.1,0-0.2,0-0.3c-0.1-0.1-0.2-0.2-0.3-0.2l-1.2-0.3c0-0.2-0.2-0.3-0.4-0.3l-1.2-0.3c-0.3-0.1-0.5,0.1-0.6,0.3l-0.4,1.1  c0,0.1,0,0.2,0,0.3c0.1,0.1,0.2,0.2,0.3,0.2h0.1l-0.2,0.9c-0.1,0.1-0.2,0.2-0.3,0.2l0,0c-0.2,0-0.3,0.1-0.3,0.3v0.2l0,0  c0,0.1,0.1,0.1,0.2,0.1c0.2,0,0.3,0,0.5-0.1l0.2-0.1h0.1l1.2,0.3c0.3,0.1,0.5-0.1,0.6-0.3v-0.1l0.6,0.7c-0.9,1.1-1.7,2.2-2.3,3.5  l-0.5-0.2l0,0l0.2-0.7c0-0.1,0-0.2,0-0.3c-0.1-0.1-0.2-0.2-0.3-0.2l-1.2-0.3h-0.1l-0.1-0.1l-1.2-0.3c-0.1,0-0.2,0-0.3,0  c-0.1,0-0.1,0-0.1,0.1l0,0h-0.1c-0.1,0.1-0.1,0.1-0.1,0.2l-0.3,1.1c0,0.1,0,0.2,0,0.3c0.1,0.1,0.2,0.2,0.3,0.2h0.1l-0.3,1l0,0  c-0.1,0.1-0.2,0.2-0.4,0.2h-0.2c-0.1,0-0.2,0.1-0.2,0.2v0.1v0.1c0.1,0.1,0.1,0.1,0.2,0.1h0.1c0.3,0,0.5-0.1,0.7-0.3l0,0l1.2,0.3  c0.3,0.1,0.5-0.1,0.6-0.3l0.2-0.8l1.2,0.6c-0.3,0.7-0.5,1.5-0.7,2.3c0,0.2-0.1,0.4-0.1,0.6c-0.1,0.6-0.2,1.3-0.3,1.9h-0.2  c0-0.1,0-0.2-0.1-0.3c-0.1-0.1-0.2-0.2-0.3-0.2l-1.1,0h-0.1l-0.2,0l-1.3-0.1c-0.3,0-0.5,0.1-0.5,0.4l-0.1,0.8l0.9,0.8l3.7-0.8  c0.1,0,0.2,0,0.3,0h0.1c0.1,0,0.2,0,0.3,0l5.7,1.2h0.1c0-0.1-0.1-0.2-0.2-0.2h0.9v-1.5h-3.4l2.4-0.5c0.2,0,0.3-0.2,0.4-0.3  c0-0.2,0-0.4-0.1-0.5l-1.4-1.1l2.1,1.1v-1.4l-1.3-0.6l1,0.2c0.2,0,0.4,0,0.5-0.1l0.1-0.1c0.1-0.1,0.1-0.3,0-0.4l-0.5-1l0.9,1.1  l0.3-0.1l2.6-0.5l-1.1-3.3l0.7,1.3c0.1,0.1,0.1,0.2,0.2,0.2l0.6,1.7l1.2-0.3v-3.1l0.2,1.3c0,0.2,0.2,0.4,0.4,0.4l0,0v1.3l0.8-0.2  c0.1,0,0.3,0,0.4,0l0.7-2.1l0,0l-0.2,1.4c0,0.2,0.1,0.4,0.3,0.5h0.1l-0.1,0.3l1.6,0.3l0.7-0.9l-0.5,1l3.3,0.7c0.2,0,0.3,0.1,0.4,0.2  v-1.4l-1.8,0.4l1.8-2.1L209.1,41.2z M195.9,40.6l0.1,0.7c-0.6,0.4-1.1,0.9-1.7,1.5l-0.6-0.7C194.4,41.5,195.1,41,195.9,40.6z   M192.4,43.5l0.5,1c-0.5,0.8-1,1.6-1.4,2.5l-0.7-0.2l-0.4-0.2C190.9,45.5,191.6,44.5,192.4,43.5z M190.7,49.3  c-0.1,0.5-0.3,1-0.4,1.5c-0.1,0.3-0.1,0.5-0.1,0.8l-1.1,0.3H189c0-0.2,0-0.4,0.1-0.6c0.2-1.2,0.5-2.4,0.9-3.5l1,0.8  C190.8,48.8,190.7,49.1,190.7,49.3z M191.2,51.4c0.1-0.7,0.3-1.4,0.5-2.1l1.9,1.6l0,0L191.2,51.4z M192.5,47.2  c0.3-0.6,0.6-1.2,1-1.8l1.3,2.3L192.5,47.2z M196.2,45l-1.2-1.5c0.4-0.4,0.8-0.8,1.2-1.1l0.5,3L196.2,45z M196.5,39.2l-0.4-1.2  l0.1-0.2l0.3,0.1l0.4,1.3L196.5,39.2z M197.2,40.4L197,40l0.2-0.1l0.1,0.4L197.2,40.4z M198.3,47.5l-0.6-0.7  c0.1-0.1,0.1-0.2,0.1-0.4l-0.1-0.6L198.3,47.5z M198.3,39.9l-0.1-0.3c0.5-0.1,1-0.2,1.6-0.3l-0.7,0.2  C198.8,39.7,198.5,39.8,198.3,39.9L198.3,39.9z M199.4,43.1l-0.8-2.3c0.4-0.2,0.8-0.3,1.3-0.5L199.4,43.1z M201.7,42.3L201.7,42.3  l-0.4-2.3l0.4,0l0,0L201.7,42.3z M201.7,38.5L201.7,38.5h-0.7v-0.7h0.3c0.1,0,0.2,0,0.4-0.1l0,0L201.7,38.5z M202.7,42.7v-2.8  c0.4,0,0.8,0,1.3,0.1l0.2,0.1L202.7,42.7z M206,38.2l0.8,0.1l-0.4,1.3c-0.2-0.1-0.5-0.2-0.7-0.2L206,38.2z M204.8,44l0.5-3.3  l0.5,0.3L204.8,44z M205.7,44.5l1-2.9c0.4,0.3,0.9,0.7,1.2,1.1L205.7,44.5z M207.6,45.8l1.2-2.2l0.3,0.4L207.6,45.8z"/>
<path class="st2" d="M202,56.5l-3.8,1.4v26.8c0.9,0.2,1.9,1,2.8,0.4c0.3-0.2,0.6-0.4,1-0.4V56.5z"/>
<path class="st2" d="M188.2,61.7l-3.9,1.5v38.1c0.6-0.3,1.3-0.5,1.6-1.3c0.1-0.7,0.1-1.3,0-2c-0.1-0.4,0.6-1,1.2-0.9  c0.4,0,0.8-0.1,1.2-0.2V61.7z"/>
<path class="st2" d="M168.7,107.8c0.3,0.1,0.7,0,1-0.2c1.8-1.2,0.9-3.8,2.9-5h0.1v-35l-4,1.6L168.7,107.8z"/>
<path class="st2" d="M152.4,75.4v37.4c0.9-0.1,2.1-0.7,2.1-1.6c0-1.8,1.1-1.3,1.1-1.4V74.2L152.4,75.4z"/>
<path class="st2" d="M169.1,59.8c1.3,0,2.4-1.7,2.4-3.7s-1.1-3.7-2.4-3.7s-2.4,1.7-2.4,3.7S167.7,59.8,169.1,59.8z"/>
<path class="st2" d="M159.1,61c0-2-1.1-3.7-2.4-3.7s-2.4,1.7-2.4,3.7s1.1,3.7,2.4,3.7S159.1,63,159.1,61z"/>
<path class="st6" d="M208.7,48.3l-3.3-0.7l-0.2,0l-1.6-0.3l-0.6-0.1h0c-0.2,0-0.4,0-0.6,0.1c0,0-0.1,0.1-0.1,0.1  c-0.2,0.1-0.2,0.3-0.2,0.5v6.8l-3.8,1.5l0,0l-0.3,0.1l0,0l-2,0.7v-2.1c0-0.1,0-0.2,0-0.3c0-0.1-0.1-0.2-0.1-0.3  c0-0.1-0.1-0.1-0.1-0.2c-0.2-0.2-0.4-0.3-0.6-0.4H195l-5.7-1.2c-0.1,0-0.2,0-0.3,0h-0.1c-0.4,0.1-0.6,0.4-0.6,0.7V60l-7.9,3  c-0.1-0.1-0.2-0.2-0.3-0.3c-0.1-0.1-0.2-0.2-0.4-0.2c-0.1,0-0.2-0.1-0.3-0.1l-4.1-0.9l6.5-2.6v-3.9c0-0.6,0.4-1,1-1.2l0.8-0.2  l-7.7-7.2l0,0l-26.2,9.9v56.1l0.2,0.1c0.4,0.2,0.8,0.4,1.2,0.5c0.5,0.1,1,0.1,1.4,0V75.4l3.2-1.2v35.7c0.7,0.4,1.5,0.4,2.1,0.1  c1-0.7,1.1-2,2.1-2.5c0.7-0.4,0.7-1.1,1.6-1.5c1.8-0.7,4.3-0.8,5.1,0.7c0.1,0.2,0.5,0.9,2.1,1.1V69.2l4-1.6v34.9  c0.8-0.5,1.4-0.3,1.8-1.7c1.4,0.1,1.6-0.8,2.3-1.1c2.1,0.4-0.2,2.9,0.7,4c0.4,0.5,1.1,0.8,1.8,0.7c0.6,0,3,0,3.6-0.5  s0.6-1.5,0.7-1.9c0.1-0.4,0.4-0.7,0.8-0.8V63.2l0,0l3.9-1.5v35.2c0.2-0.1,0.4-0.1,0.6,0c0.2,0.1,1.9,0.5,2.6,0  c0.3-0.2,0.4-0.9,0.5-1s0.6-0.4,0.4-0.7s-0.1-1-0.2-1.6s-0.1-1.1,0.3-1.4s1.7-0.4,2.3-1s-0.3-2.4,0.6-3.7c1.1,0.1,2.7-1.7,2.1-2.7  c0.3-0.1,0.6-0.2,0.9-0.1V57.9l0,0l3.7-1.4v28.2c0.9-0.2,1.9,0.2,2.9-0.1c0.2-0.5,1.1-0.7,1-1.6l1.6-0.2c0.8-0.6,1.4-1.4,1.6-2.4  V48.5C209,48.4,208.9,48.3,208.7,48.3z M169.1,52.4c1.3,0,2.4,1.7,2.4,3.7s-1.1,3.7-2.4,3.7s-2.4-1.7-2.4-3.7S167.7,52.4,169.1,52.4  z M156.8,64.7c-1.3,0-2.4-1.7-2.4-3.7s1.1-3.7,2.4-3.7s2.4,1.7,2.4,3.7S158.1,64.7,156.8,64.7z M172.7,61.8V66l-9.3,3.6  c-0.2-0.4-0.6-0.7-1-0.8l-3.4-0.7l7.4-3v-1.7c0-0.6,0.5-1,1-1.2l5.7-1.2h0.1C172.9,61.2,172.6,61.5,172.7,61.8L172.7,61.8z"/>
<path class="st2" d="M202.5,47.1l-0.8,0.2l-0.7,0.2l-1.2,0.2l-0.4,0.1l-2.6,0.5l-0.3,0.1c-0.2,0.1-0.3,0.2-0.4,0.3l-0.1,0.1  c-0.1,0.1-0.2,0.3-0.2,0.5v5c0.1,0.2,0.2,0.4,0.2,0.5V57l1.9-0.7l0.3-0.1l0,0l3.8-1.5v-6.8c0-0.4,0.4-0.8,0.8-0.8c0.1,0,0.1,0,0.2,0  h-0.1C202.8,47.1,202.7,47.1,202.5,47.1L202.5,47.1z"/>
<path class="st2" d="M175.9,46.3l7.7,7.2l-0.8,0.2c-0.6,0.1-1,0.6-1.1,1.2v3.9l-6.5,2.6l4.1,0.9c0.4,0.1,0.7,0.3,0.9,0.7l7.9-3l0,0  v-6.7c0-0.4,0.3-0.7,0.6-0.7c-0.1,0-0.2,0-0.3,0l-3.7,0.8l-0.9-0.8l-8-7.5L153,49l-3.3,0.6v6.6L175.9,46.3L175.9,46.3z"/>
<path class="st2" d="M172.7,61.8c0-0.4,0.3-0.7,0.6-0.7h-0.1l-5.7,1.2c-0.5,0.1-1,0.6-1,1.2V65l-7.4,3l3.4,0.7  c0.4,0.1,0.8,0.4,1,0.8l9.3-3.6L172.7,61.8z"/>
<path class="st2" d="M156.3,67.4h-0.1l-5,1c-0.6,0.1-1,0.6-1,1.2v1.7l-0.6,0.2v3.3l6.1-2.4v-4.3C155.7,67.8,155.9,67.5,156.3,67.4"/>
<g>
	<path class="st2" d="M2.8,125v20H0.4v-20H2.8z"/>
	<path class="st2" d="M21.7,125H24v20h-1.9L8.5,128.6V145H6.1v-20h2.2l13.3,16V125z"/>
	<path class="st2" d="M34.5,145h-7.4v-20h7.4c6.6,0,11.2,4.3,11.2,10C45.7,140.7,41.1,145,34.5,145z M34.5,127.1h-4.9v15.8h4.9   c5.3,0,8.7-3.5,8.7-7.9C43.2,130.6,39.8,127.1,34.5,127.1z"/>
	<path class="st2" d="M50.4,125v20h-2.4v-20H50.4z"/>
	<path class="st2" d="M73.4,145h-2.6l-2.5-5.3H56.9l-2.5,5.3H52l9.6-20.2h2.2L73.4,145z M62.7,127.5l-4.8,10.2h9.6L62.7,127.5z"/>
	<path class="st2" d="M90.3,125h2.3v20h-1.9L77,128.6V145h-2.3v-20h2.2l13.3,16V125z"/>
	<path class="st2" d="M115.4,145h-2.6l-2.5-5.3H98.9l-2.5,5.3h-2.5l9.6-20.2h2.2L115.4,145z M104.6,127.5l-4.8,10.2h9.6L104.6,127.5   z"/>
	<path class="st2" d="M130.4,133.9c4.7,1,6.9,2.6,6.9,5.7c0,3.5-3,5.7-7.2,5.7c-3.2,0-6.3-1.1-8.6-3.2l1.5-1.7   c1.9,1.8,4.5,2.8,7.2,2.8c2.8,0,4.7-1.4,4.7-3.4c0-2-1.1-2.9-5.5-3.8c-4.9-1-7.1-2.5-7.1-5.8c0-3.3,2.9-5.5,6.9-5.5   c2.7-0.1,5.3,0.8,7.4,2.5l-1.4,1.7c-1.7-1.4-3.9-2.2-6.1-2.2c-2.7,0-4.5,1.4-4.5,3.3S125.8,133,130.4,133.9z"/>
	<path class="st2" d="M146.8,145h-2.5v-17.9h-7.1v-2h16.6v2h-7.1L146.8,145z"/>
	<path class="st2" d="M172.5,145h-2.6l-2.5-5.3H156l-2.5,5.3h-2.5l9.6-20.2h2.2L172.5,145z M161.7,127.5l-4.8,10.2h9.6L161.7,127.5z   "/>
	<path class="st2" d="M179.1,145h-2.5v-17.9h-7.1v-2h16.6v2H179L179.1,145z"/>
	<path class="st2" d="M203,127.1h-12.9v6.8h11.5v2h-11.5v7h13v2.1h-15.4V125H203V127.1z"/>
</g>
<g>
	<path class="st2" d="M215.5,204.9l-2.1-2c-1.1,1.3-2.7,2-4.4,2c-2.4,0-4.2-1.5-4.2-3.6c0-1.7,1.2-2.9,3.2-3.7   c-0.8-0.7-1.3-1.8-1.3-2.8c0-1.7,1.5-3.1,3.3-3.1c0.1,0,0.2,0,0.2,0c1.7-0.1,3.2,1.2,3.3,2.8c0,0,0,0.1,0,0.1   c0,1.7-1.2,2.7-3.2,3.3l3.1,3c0.6-0.9,1.2-1.9,1.6-2.8l1.3,0.6c-0.5,1.1-1.2,2.2-1.9,3.2l2.3,2.3L215.5,204.9z M208.9,198.4   c-1.8,0.6-2.6,1.7-2.6,2.8c0,1.4,1.2,2.5,2.6,2.4c0.1,0,0.1,0,0.2,0c1.3-0.1,2.5-0.7,3.4-1.7L208.9,198.4z M210.2,192.8   c-1.1-0.1-2,0.7-2,1.7c0,0,0,0.1,0,0.1c0,0.8,0.3,1.3,1.3,2.4c1.7-0.6,2.6-1.3,2.6-2.5c0-1-0.8-1.8-1.8-1.8   C210.3,192.8,210.2,192.8,210.2,192.8z"/>
	<path class="st2" d="M231.3,193.2h-8.2v4.4h7.3v1.3h-7.3v4.5h8.3v1.3h-9.8v-12.8h9.7V193.2z"/>
	<path class="st2" d="M242.9,191.8h1.6l-5.8,12.9h-1.4l-5.8-12.9h1.7l4.8,11L242.9,191.8z"/>
	<path class="st2" d="M255.3,193.2h-8.2v4.4h7.3v1.3h-7.3v4.5h8.3v1.3h-9.8v-12.8h9.7V193.2z"/>
	<path class="st2" d="M266.7,191.8h1.5v12.8h-1.2l-8.7-10.5v10.5h-1.5v-12.8h1.4l8.5,10.2L266.7,191.8z"/>
	<path class="st2" d="M275.4,204.6h-1.6v-11.5h-4.5v-1.3h10.6v1.3h-4.5L275.4,204.6z"/>
	<path class="st2" d="M291.3,204.9c-3.9,0-7-3-6.9-6.7s3.2-6.6,7-6.6c2-0.1,3.9,0.7,5.2,2l-1.1,1c-1.1-1.1-2.6-1.7-4.2-1.8   c-3.1,0.2-5.4,2.7-5.2,5.6c0.2,2.7,2.4,4.8,5.2,5c1.7,0,3.2-0.7,4.3-1.8l1,0.9C295.3,204,293.4,204.9,291.3,204.9z"/>
	<path class="st2" d="M307.4,193.2h-8.2v4.4h7.4v1.3h-7.4v4.5h8.3v1.3h-9.8v-12.8h9.7V193.2z"/>
	<path class="st2" d="M318.8,191.8h1.5v12.8h-1.2l-8.7-10.5v10.5h-1.5v-12.8h1.4l8.5,10.2V191.8z"/>
	<path class="st2" d="M327.5,204.6h-1.5v-11.5h-4.5v-1.3H332v1.3h-4.5V204.6z"/>
	<path class="st2" d="M342.9,193.2h-8.2v4.4h7.3v1.3h-7.3v4.5h8.3v1.3h-9.8v-12.8h9.7V193.2z"/>
	<path class="st2" d="M353.7,204.6l-3.9-5h-3.8v5h-1.5v-12.8h5.8c3,0,4.9,1.5,4.9,3.8c0,2.3-1.5,3.4-3.6,3.8l4.1,5.2H353.7z    M350,193.2h-4.2v5.2h4.2c2,0,3.5-1,3.5-2.7S352.2,193.2,350,193.2z"/>
</g>
</svg>